<mxfile modified="2024-04-12T00:45:04.260Z" host="app.diagrams.net" agent="Mozilla/5.0 (Windows NT 10.0; Win64; x64) AppleWebKit/537.36 (KHTML, like Gecko) Chrome/123.0.0.0 Safari/537.36" etag="tWCPdgCphCmy9x8AemkD" version="24.2.3" type="device">
  <diagram id="Ht1M8jgEwFfnCIfOTk4-" name="Page-1">
    <mxGraphModel dx="472" dy="778" grid="1" gridSize="10" guides="1" tooltips="1" connect="1" arrows="1" fold="1" page="1" pageScale="1" pageWidth="827" pageHeight="1169" math="0" shadow="0">
      <root>
        <mxCell id="0" />
        <mxCell id="1" parent="0" />
        <mxCell id="-QjtrjUzRDEMRZ5MF8oH-47" value="Title text" style="text;html=1;resizable=0;points=[];autosize=1;align=left;verticalAlign=top;spacingTop=-4;fontSize=30;fontStyle=1" parent="1" vertex="1">
          <mxGeometry x="12" y="65.5" width="130" height="40" as="geometry" />
        </mxCell>
        <mxCell id="-QjtrjUzRDEMRZ5MF8oH-48" value="Subtitle text&lt;br style=&quot;font-size: 16px&quot;&gt;" style="text;html=1;resizable=0;points=[];autosize=1;align=left;verticalAlign=top;spacingTop=-4;fontSize=16" parent="1" vertex="1">
          <mxGeometry x="12" y="115.5" width="100" height="20" as="geometry" />
        </mxCell>
        <mxCell id="SCVMTBWpLvtzJIhz15lM-1" value="" style="line;strokeWidth=2;html=1;fontSize=14;" parent="1" vertex="1">
          <mxGeometry x="8" y="140.5" width="1060" height="10" as="geometry" />
        </mxCell>
        <mxCell id="XsU4JGcxxrezBhXOzOZ4-15" value="Seoul Region(ap-northeast-2)" style="points=[[0,0],[0.25,0],[0.5,0],[0.75,0],[1,0],[1,0.25],[1,0.5],[1,0.75],[1,1],[0.75,1],[0.5,1],[0.25,1],[0,1],[0,0.75],[0,0.5],[0,0.25]];outlineConnect=0;gradientColor=none;html=1;whiteSpace=wrap;fontSize=12;fontStyle=0;container=1;pointerEvents=0;collapsible=0;recursiveResize=0;shape=mxgraph.aws4.group;grIcon=mxgraph.aws4.group_region;strokeColor=#00A4A6;fillColor=none;verticalAlign=top;align=left;spacingLeft=30;fontColor=#147EBA;dashed=1;" parent="1" vertex="1">
          <mxGeometry x="8" y="200" width="602" height="500" as="geometry" />
        </mxCell>
        <mxCell id="XsU4JGcxxrezBhXOzOZ4-13" value="ap-northeast-2a" style="fillColor=none;strokeColor=#147EBA;dashed=1;verticalAlign=top;fontStyle=0;fontColor=#147EBA;whiteSpace=wrap;html=1;" parent="XsU4JGcxxrezBhXOzOZ4-15" vertex="1">
          <mxGeometry x="12" y="40" width="198" height="440" as="geometry" />
        </mxCell>
        <mxCell id="XsU4JGcxxrezBhXOzOZ4-18" value="Sh-pri-sn3&lt;br&gt;(10.1.3.0/24)" style="points=[[0,0],[0.25,0],[0.5,0],[0.75,0],[1,0],[1,0.25],[1,0.5],[1,0.75],[1,1],[0.75,1],[0.5,1],[0.25,1],[0,1],[0,0.75],[0,0.5],[0,0.25]];outlineConnect=0;gradientColor=none;html=1;whiteSpace=wrap;fontSize=12;fontStyle=0;container=1;pointerEvents=0;collapsible=0;recursiveResize=0;shape=mxgraph.aws4.group;grIcon=mxgraph.aws4.group_security_group;grStroke=0;strokeColor=#00A4A6;fillColor=#E6F6F7;verticalAlign=top;align=left;spacingLeft=30;fontColor=#147EBA;dashed=0;" parent="XsU4JGcxxrezBhXOzOZ4-15" vertex="1">
          <mxGeometry x="30" y="290" width="170" height="150" as="geometry" />
        </mxCell>
        <mxCell id="XsU4JGcxxrezBhXOzOZ4-14" value="ap-northeast-2c" style="fillColor=none;strokeColor=#147EBA;dashed=1;verticalAlign=top;fontStyle=0;fontColor=#147EBA;whiteSpace=wrap;html=1;" parent="XsU4JGcxxrezBhXOzOZ4-15" vertex="1">
          <mxGeometry x="342" y="40" width="210" height="440" as="geometry" />
        </mxCell>
        <mxCell id="XsU4JGcxxrezBhXOzOZ4-16" value="sh-vpc(10.1.0.0/16)" style="points=[[0,0],[0.25,0],[0.5,0],[0.75,0],[1,0],[1,0.25],[1,0.5],[1,0.75],[1,1],[0.75,1],[0.5,1],[0.25,1],[0,1],[0,0.75],[0,0.5],[0,0.25]];outlineConnect=0;gradientColor=none;html=1;whiteSpace=wrap;fontSize=12;fontStyle=0;container=1;pointerEvents=0;collapsible=0;recursiveResize=0;shape=mxgraph.aws4.group;grIcon=mxgraph.aws4.group_vpc2;strokeColor=#8C4FFF;fillColor=none;verticalAlign=top;align=left;spacingLeft=30;fontColor=#AAB7B8;dashed=0;" parent="XsU4JGcxxrezBhXOzOZ4-15" vertex="1">
          <mxGeometry x="12" y="90" width="570" height="360" as="geometry" />
        </mxCell>
        <mxCell id="XsU4JGcxxrezBhXOzOZ4-17" value="Sh-pub-sn1&lt;br&gt;(10.1.1.0/24)" style="points=[[0,0],[0.25,0],[0.5,0],[0.75,0],[1,0],[1,0.25],[1,0.5],[1,0.75],[1,1],[0.75,1],[0.5,1],[0.25,1],[0,1],[0,0.75],[0,0.5],[0,0.25]];outlineConnect=0;gradientColor=none;html=1;whiteSpace=wrap;fontSize=12;fontStyle=0;container=1;pointerEvents=0;collapsible=0;recursiveResize=0;shape=mxgraph.aws4.group;grIcon=mxgraph.aws4.group_security_group;grStroke=0;strokeColor=#7AA116;fillColor=#F2F6E8;verticalAlign=top;align=left;spacingLeft=30;fontColor=#248814;dashed=0;" parent="XsU4JGcxxrezBhXOzOZ4-16" vertex="1">
          <mxGeometry x="20" y="40" width="160" height="130" as="geometry" />
        </mxCell>
        <mxCell id="XsU4JGcxxrezBhXOzOZ4-46" value="NAT Gateway &amp;amp;&lt;br&gt;Bastion Host" style="text;html=1;align=center;verticalAlign=middle;whiteSpace=wrap;rounded=0;" parent="XsU4JGcxxrezBhXOzOZ4-17" vertex="1">
          <mxGeometry x="30" y="100" width="100" height="30" as="geometry" />
        </mxCell>
        <mxCell id="XsU4JGcxxrezBhXOzOZ4-20" value="Sh-pub-sn2&lt;br&gt;(10.1.2.0/24)" style="points=[[0,0],[0.25,0],[0.5,0],[0.75,0],[1,0],[1,0.25],[1,0.5],[1,0.75],[1,1],[0.75,1],[0.5,1],[0.25,1],[0,1],[0,0.75],[0,0.5],[0,0.25]];outlineConnect=0;gradientColor=none;html=1;whiteSpace=wrap;fontSize=12;fontStyle=0;container=1;pointerEvents=0;collapsible=0;recursiveResize=0;shape=mxgraph.aws4.group;grIcon=mxgraph.aws4.group_security_group;grStroke=0;strokeColor=#7AA116;fillColor=#F2F6E8;verticalAlign=top;align=left;spacingLeft=30;fontColor=#248814;dashed=0;" parent="XsU4JGcxxrezBhXOzOZ4-16" vertex="1">
          <mxGeometry x="357" y="40" width="160" height="130" as="geometry" />
        </mxCell>
        <mxCell id="XsU4JGcxxrezBhXOzOZ4-21" value="Sh-pri-sn4&lt;br style=&quot;border-color: var(--border-color);&quot;&gt;(10.1.4.0/24)" style="points=[[0,0],[0.25,0],[0.5,0],[0.75,0],[1,0],[1,0.25],[1,0.5],[1,0.75],[1,1],[0.75,1],[0.5,1],[0.25,1],[0,1],[0,0.75],[0,0.5],[0,0.25]];outlineConnect=0;gradientColor=none;html=1;whiteSpace=wrap;fontSize=12;fontStyle=0;container=1;pointerEvents=0;collapsible=0;recursiveResize=0;shape=mxgraph.aws4.group;grIcon=mxgraph.aws4.group_security_group;grStroke=0;strokeColor=#00A4A6;fillColor=#E6F6F7;verticalAlign=top;align=left;spacingLeft=30;fontColor=#147EBA;dashed=0;" parent="XsU4JGcxxrezBhXOzOZ4-16" vertex="1">
          <mxGeometry x="357" y="200" width="160" height="160" as="geometry" />
        </mxCell>
        <mxCell id="XsU4JGcxxrezBhXOzOZ4-25" value="" style="sketch=0;outlineConnect=0;fontColor=#232F3E;gradientColor=none;fillColor=#8C4FFF;strokeColor=none;dashed=0;verticalLabelPosition=bottom;verticalAlign=top;align=center;html=1;fontSize=12;fontStyle=0;aspect=fixed;pointerEvents=1;shape=mxgraph.aws4.application_load_balancer;" parent="XsU4JGcxxrezBhXOzOZ4-16" vertex="1">
          <mxGeometry x="235" y="66" width="78" height="78" as="geometry" />
        </mxCell>
        <mxCell id="XsU4JGcxxrezBhXOzOZ4-41" value="Auto Scaling group" style="points=[[0,0],[0.25,0],[0.5,0],[0.75,0],[1,0],[1,0.25],[1,0.5],[1,0.75],[1,1],[0.75,1],[0.5,1],[0.25,1],[0,1],[0,0.75],[0,0.5],[0,0.25]];outlineConnect=0;gradientColor=none;html=1;whiteSpace=wrap;fontSize=12;fontStyle=0;container=1;pointerEvents=0;collapsible=0;recursiveResize=0;shape=mxgraph.aws4.groupCenter;grIcon=mxgraph.aws4.group_auto_scaling_group;grStroke=1;strokeColor=#D86613;fillColor=none;verticalAlign=top;align=center;fontColor=#D86613;dashed=1;spacingTop=25;" parent="XsU4JGcxxrezBhXOzOZ4-16" vertex="1">
          <mxGeometry x="48" y="239" width="450" height="120" as="geometry" />
        </mxCell>
        <mxCell id="XsU4JGcxxrezBhXOzOZ4-48" value="Seoul Web 2&lt;div&gt;(172.16.4.100)&lt;/div&gt;" style="text;html=1;align=center;verticalAlign=middle;whiteSpace=wrap;rounded=0;" parent="XsU4JGcxxrezBhXOzOZ4-41" vertex="1">
          <mxGeometry x="338.5" y="82" width="100" height="30" as="geometry" />
        </mxCell>
        <mxCell id="XsU4JGcxxrezBhXOzOZ4-36" value="" style="sketch=0;outlineConnect=0;fontColor=#232F3E;gradientColor=none;fillColor=#ED7100;strokeColor=none;dashed=0;verticalLabelPosition=bottom;verticalAlign=top;align=center;html=1;fontSize=12;fontStyle=0;aspect=fixed;pointerEvents=1;shape=mxgraph.aws4.instance2;" parent="XsU4JGcxxrezBhXOzOZ4-41" vertex="1">
          <mxGeometry x="18" y="8" width="63.5" height="63.5" as="geometry" />
        </mxCell>
        <mxCell id="XsU4JGcxxrezBhXOzOZ4-49" style="edgeStyle=orthogonalEdgeStyle;rounded=0;orthogonalLoop=1;jettySize=auto;html=1;" parent="XsU4JGcxxrezBhXOzOZ4-15" source="XsU4JGcxxrezBhXOzOZ4-23" target="XsU4JGcxxrezBhXOzOZ4-25" edge="1">
          <mxGeometry relative="1" as="geometry" />
        </mxCell>
        <mxCell id="XsU4JGcxxrezBhXOzOZ4-23" value="" style="sketch=0;outlineConnect=0;fontColor=#232F3E;gradientColor=none;fillColor=#8C4FFF;strokeColor=none;dashed=0;verticalLabelPosition=bottom;verticalAlign=top;align=center;html=1;fontSize=12;fontStyle=0;aspect=fixed;pointerEvents=1;shape=mxgraph.aws4.internet_gateway;" parent="XsU4JGcxxrezBhXOzOZ4-15" vertex="1">
          <mxGeometry x="247" y="50" width="78" height="78" as="geometry" />
        </mxCell>
        <mxCell id="XsU4JGcxxrezBhXOzOZ4-64" style="edgeStyle=orthogonalEdgeStyle;rounded=0;orthogonalLoop=1;jettySize=auto;html=1;" parent="XsU4JGcxxrezBhXOzOZ4-15" source="XsU4JGcxxrezBhXOzOZ4-34" target="XsU4JGcxxrezBhXOzOZ4-23" edge="1">
          <mxGeometry relative="1" as="geometry">
            <Array as="points">
              <mxPoint x="212" y="195" />
              <mxPoint x="212" y="89" />
            </Array>
          </mxGeometry>
        </mxCell>
        <mxCell id="XsU4JGcxxrezBhXOzOZ4-34" value="" style="sketch=0;points=[[0,0,0],[0.25,0,0],[0.5,0,0],[0.75,0,0],[1,0,0],[0,1,0],[0.25,1,0],[0.5,1,0],[0.75,1,0],[1,1,0],[0,0.25,0],[0,0.5,0],[0,0.75,0],[1,0.25,0],[1,0.5,0],[1,0.75,0]];outlineConnect=0;fontColor=#232F3E;fillColor=#ED7100;strokeColor=#ffffff;dashed=0;verticalLabelPosition=bottom;verticalAlign=top;align=center;html=1;fontSize=12;fontStyle=0;aspect=fixed;shape=mxgraph.aws4.resourceIcon;resIcon=mxgraph.aws4.compute;" parent="XsU4JGcxxrezBhXOzOZ4-15" vertex="1">
          <mxGeometry x="84" y="170" width="50" height="50" as="geometry" />
        </mxCell>
        <mxCell id="XsU4JGcxxrezBhXOzOZ4-35" value="" style="sketch=0;outlineConnect=0;fontColor=#232F3E;gradientColor=none;fillColor=#ED7100;strokeColor=none;dashed=0;verticalLabelPosition=bottom;verticalAlign=top;align=center;html=1;fontSize=12;fontStyle=0;aspect=fixed;pointerEvents=1;shape=mxgraph.aws4.instance2;" parent="XsU4JGcxxrezBhXOzOZ4-15" vertex="1">
          <mxGeometry x="406" y="336" width="69" height="69" as="geometry" />
        </mxCell>
        <mxCell id="XsU4JGcxxrezBhXOzOZ4-43" style="edgeStyle=orthogonalEdgeStyle;rounded=0;orthogonalLoop=1;jettySize=auto;html=1;entryX=0.5;entryY=1;entryDx=0;entryDy=0;entryPerimeter=0;" parent="XsU4JGcxxrezBhXOzOZ4-15" source="XsU4JGcxxrezBhXOzOZ4-35" target="XsU4JGcxxrezBhXOzOZ4-34" edge="1">
          <mxGeometry relative="1" as="geometry">
            <Array as="points">
              <mxPoint x="441" y="280" />
              <mxPoint x="109" y="280" />
            </Array>
          </mxGeometry>
        </mxCell>
        <mxCell id="XsU4JGcxxrezBhXOzOZ4-44" style="edgeStyle=orthogonalEdgeStyle;rounded=0;orthogonalLoop=1;jettySize=auto;html=1;entryX=0.5;entryY=1;entryDx=0;entryDy=0;entryPerimeter=0;" parent="XsU4JGcxxrezBhXOzOZ4-15" source="XsU4JGcxxrezBhXOzOZ4-36" target="XsU4JGcxxrezBhXOzOZ4-34" edge="1">
          <mxGeometry relative="1" as="geometry" />
        </mxCell>
        <mxCell id="XsU4JGcxxrezBhXOzOZ4-61" style="edgeStyle=orthogonalEdgeStyle;rounded=0;orthogonalLoop=1;jettySize=auto;html=1;" parent="XsU4JGcxxrezBhXOzOZ4-15" source="XsU4JGcxxrezBhXOzOZ4-25" edge="1">
          <mxGeometry relative="1" as="geometry">
            <mxPoint x="142" y="370" as="targetPoint" />
            <Array as="points">
              <mxPoint x="282" y="370" />
            </Array>
          </mxGeometry>
        </mxCell>
        <mxCell id="XsU4JGcxxrezBhXOzOZ4-62" style="edgeStyle=orthogonalEdgeStyle;rounded=0;orthogonalLoop=1;jettySize=auto;html=1;" parent="XsU4JGcxxrezBhXOzOZ4-15" source="XsU4JGcxxrezBhXOzOZ4-25" target="XsU4JGcxxrezBhXOzOZ4-35" edge="1">
          <mxGeometry relative="1" as="geometry">
            <Array as="points">
              <mxPoint x="292" y="370" />
            </Array>
          </mxGeometry>
        </mxCell>
        <mxCell id="XsU4JGcxxrezBhXOzOZ4-66" value="Seoul Web 1&lt;div&gt;(172.16.3.100)&lt;/div&gt;" style="text;html=1;align=center;verticalAlign=middle;whiteSpace=wrap;rounded=0;" parent="XsU4JGcxxrezBhXOzOZ4-15" vertex="1">
          <mxGeometry x="59" y="408" width="100" height="30" as="geometry" />
        </mxCell>
        <mxCell id="XsU4JGcxxrezBhXOzOZ4-51" value="NAT Gateway &amp;amp;&lt;br&gt;Bastion Host" style="text;html=1;align=center;verticalAlign=middle;whiteSpace=wrap;rounded=0;" parent="1" vertex="1">
          <mxGeometry x="70" y="430" width="100" height="30" as="geometry" />
        </mxCell>
        <mxCell id="XsU4JGcxxrezBhXOzOZ4-53" style="edgeStyle=orthogonalEdgeStyle;rounded=0;orthogonalLoop=1;jettySize=auto;html=1;" parent="1" source="XsU4JGcxxrezBhXOzOZ4-52" target="XsU4JGcxxrezBhXOzOZ4-34" edge="1">
          <mxGeometry relative="1" as="geometry" />
        </mxCell>
        <mxCell id="XsU4JGcxxrezBhXOzOZ4-55" value="" style="group" parent="1" vertex="1" connectable="0">
          <mxGeometry x="97" y="160" width="40" height="40" as="geometry" />
        </mxCell>
        <mxCell id="XsU4JGcxxrezBhXOzOZ4-50" value="" style="sketch=0;pointerEvents=1;shadow=0;dashed=0;html=1;strokeColor=none;labelPosition=center;verticalLabelPosition=bottom;verticalAlign=top;align=center;fillColor=#515151;shape=mxgraph.mscae.system_center.admin_console" parent="XsU4JGcxxrezBhXOzOZ4-55" vertex="1">
          <mxGeometry x="7" width="30" height="21.6" as="geometry" />
        </mxCell>
        <mxCell id="XsU4JGcxxrezBhXOzOZ4-52" value="admin" style="text;html=1;align=center;verticalAlign=middle;whiteSpace=wrap;rounded=0;" parent="XsU4JGcxxrezBhXOzOZ4-55" vertex="1">
          <mxGeometry y="20" width="40" height="20" as="geometry" />
        </mxCell>
        <mxCell id="XsU4JGcxxrezBhXOzOZ4-56" value="" style="group" parent="1" vertex="1" connectable="0">
          <mxGeometry x="274" y="160" width="40" height="40" as="geometry" />
        </mxCell>
        <mxCell id="XsU4JGcxxrezBhXOzOZ4-57" value="" style="sketch=0;pointerEvents=1;shadow=0;dashed=0;html=1;strokeColor=none;labelPosition=center;verticalLabelPosition=bottom;verticalAlign=top;align=center;fillColor=#515151;shape=mxgraph.mscae.system_center.admin_console" parent="XsU4JGcxxrezBhXOzOZ4-56" vertex="1">
          <mxGeometry x="7" width="30" height="21.6" as="geometry" />
        </mxCell>
        <mxCell id="XsU4JGcxxrezBhXOzOZ4-58" value="user" style="text;html=1;align=center;verticalAlign=middle;whiteSpace=wrap;rounded=0;" parent="XsU4JGcxxrezBhXOzOZ4-56" vertex="1">
          <mxGeometry y="20" width="40" height="20" as="geometry" />
        </mxCell>
        <mxCell id="XsU4JGcxxrezBhXOzOZ4-59" style="edgeStyle=orthogonalEdgeStyle;rounded=0;orthogonalLoop=1;jettySize=auto;html=1;" parent="1" source="XsU4JGcxxrezBhXOzOZ4-58" target="XsU4JGcxxrezBhXOzOZ4-23" edge="1">
          <mxGeometry relative="1" as="geometry" />
        </mxCell>
      </root>
    </mxGraphModel>
  </diagram>
</mxfile>
